<?xml version="1.0" encoding="UTF-8" standalone="no"?>
<svg
   xmlns:dc="http://purl.org/dc/elements/1.1/"
   xmlns:cc="http://creativecommons.org/ns#"
   xmlns:rdf="http://www.w3.org/1999/02/22-rdf-syntax-ns#"
   xmlns:svg="http://www.w3.org/2000/svg"
   xmlns="http://www.w3.org/2000/svg"
   viewBox="0 0 50.666668 50.666668"
   height="50.666668"
   width="50.666668"
   xml:space="preserve"
   id="svg2"
   version="1.1"><metadata
     id="metadata8"><rdf:RDF><cc:Work
         rdf:about=""><dc:format>image/svg+xml</dc:format><dc:type
           rdf:resource="http://purl.org/dc/dcmitype/StillImage" /></cc:Work></rdf:RDF></metadata><defs
     id="defs6" /><g
     transform="matrix(1.3333333,0,0,-1.3333333,0,50.666667)"
     id="g10"><g
       transform="scale(0.1)"
       id="g12"><path
         id="path14"
         style="fill:#ff5e00;fill-opacity:1;fill-rule:nonzero;stroke:none"
         d="m 193.074,360.914 c -93.9295,0 -170.0779,-76.144 -170.0779,-170.078 0,-93.9337 76.1484,-170.0782 170.0779,-170.0782 93.938,0 170.082,76.1445 170.082,170.0782 0,93.934 -76.144,170.078 -170.082,170.078 z m 184.254,14.172 V 6.58594 H 8.82422 V 375.086 H 193.074 Z M 22.9961,20.7578 H 363.156 V 360.914 h -99.09 c 44.672,-18.668 80.422,-54.418 99.09,-99.086 V 119.844 C 344.488,75.1758 308.738,39.4219 264.066,20.7578 H 122.086 C 77.4141,39.4219 41.6641,75.1758 22.9961,119.844 Z M 122.082,360.914 H 22.9961 v -99.086 c 18.668,44.668 54.418,80.418 99.0859,99.086" /></g></g></svg>